<svg width="19" height="16" viewBox="0 0 19 16" fill="none" xmlns="http://www.w3.org/2000/svg">
<path d="M18.4728 2.7174C18.0084 3.33692 17.447 3.87733 16.8103 4.31776C16.8103 4.47959 16.8103 4.64142 16.8103 4.81225C16.8154 7.7511 15.6415 10.5691 13.5518 12.6345C11.462 14.6999 8.6312 15.8399 5.69405 15.7989C3.99599 15.8046 2.31967 15.4169 0.79642 14.6661C0.71428 14.6302 0.66131 14.549 0.66162 14.4593V14.3604C0.66162 14.2313 0.76623 14.1267 0.89527 14.1267C2.56442 14.0716 4.17402 13.4929 5.49634 12.4724C3.98553 12.4419 2.62619 11.5469 2.0006 10.1707C1.96901 10.0956 1.97884 10.0093 2.02657 9.9432C2.07429 9.8771 2.153 9.8407 2.23425 9.8471C2.69342 9.8932 3.15718 9.8505 3.6002 9.7212C1.93239 9.375 0.67921 7.9904 0.49986 6.2957C0.49349 6.2144 0.52992 6.1357 0.596 6.0879C0.66207 6.0402 0.74824 6.0303 0.82338 6.062C1.27094 6.2595 1.75409 6.3635 2.24324 6.3676C0.78184 5.40846 0.15061 3.58405 0.70655 1.92622C0.76394 1.76513 0.90181 1.64612 1.0695 1.61294C1.23718 1.57975 1.40996 1.63728 1.52432 1.76439C3.49639 3.86325 6.20604 5.11396 9.0819 5.25279C9.0083 4.95885 8.9721 4.65676 8.9741 4.35372C9.001 2.76472 9.9842 1.34921 11.4634 0.769872C12.9425 0.190542 14.6249 0.562032 15.723 1.71044C16.4714 1.56785 17.195 1.31645 17.8707 0.964212C17.9202 0.933312 17.983 0.933312 18.0325 0.964212C18.0634 1.01373 18.0634 1.07652 18.0325 1.12604C17.7052 1.87552 17.1523 2.50412 16.4509 2.92419C17.0651 2.85296 17.6685 2.70807 18.2482 2.49264C18.297 2.45942 18.3611 2.45942 18.4099 2.49264C18.4508 2.51134 18.4814 2.54711 18.4935 2.59042C18.5056 2.63373 18.498 2.68018 18.4728 2.7174Z" fill="black"/>
</svg>
